<svg width="2341" height="2543" viewBox="0 0 2341 2543" fill="none" xmlns="http://www.w3.org/2000/svg">
<g clip-path="url(#clip0_3_3)">
<mask id="mask0_3_3" style="mask-type:luminance" maskUnits="userSpaceOnUse" x="592" y="572" width="1160" height="1189">
<path d="M592 572H1751.42V1760.55H592V572Z" fill="white"/>
</mask>
<g mask="url(#mask0_3_3)">
<path d="M1729.57 1113.35L1223.35 594.442C1216.41 587.329 1208.18 581.686 1199.12 577.836C1190.05 573.986 1180.34 572.004 1170.53 572.004C1160.72 572.004 1151 573.986 1141.94 577.836C1132.88 581.686 1124.64 587.329 1117.71 594.442L1012.63 702.216L1145.95 838.886C1161.62 833.429 1178.47 832.577 1194.6 836.427C1210.72 840.276 1225.47 848.674 1237.18 860.669C1248.95 872.751 1257.17 887.986 1260.89 904.632C1264.62 921.278 1263.7 938.662 1258.23 954.796L1386.77 1086.53C1402.52 1080.92 1419.48 1079.98 1435.72 1083.8C1451.97 1087.63 1466.83 1096.07 1478.61 1108.15C1486.86 1116.61 1493.4 1126.65 1497.87 1137.7C1502.33 1148.75 1504.63 1160.59 1504.63 1172.55C1504.63 1184.51 1502.33 1196.35 1497.87 1207.4C1493.4 1218.45 1486.86 1228.49 1478.61 1236.95C1461.93 1254.03 1439.31 1263.62 1415.74 1263.62C1392.16 1263.62 1369.55 1254.03 1352.87 1236.95C1340.48 1224.22 1332.04 1208.03 1328.6 1190.4C1325.17 1172.76 1326.91 1154.49 1333.59 1137.86L1213.72 1015.02V1338.36C1226.37 1344.76 1237.35 1354.17 1245.75 1365.79C1254.15 1377.41 1259.73 1390.92 1262.03 1405.2C1264.32 1419.47 1263.26 1434.1 1258.94 1447.87C1254.62 1461.64 1247.17 1474.16 1237.19 1484.39C1228.94 1492.85 1219.15 1499.56 1208.37 1504.14C1197.59 1508.71 1186.04 1511.07 1174.37 1511.07C1162.7 1511.07 1151.15 1508.71 1140.37 1504.14C1129.59 1499.56 1119.8 1492.85 1111.55 1484.39C1103.3 1475.93 1096.75 1465.89 1092.29 1454.84C1087.82 1443.79 1085.52 1431.95 1085.52 1419.99C1085.52 1408.03 1087.82 1396.18 1092.29 1385.13C1096.75 1374.08 1103.3 1364.04 1111.55 1355.58C1119.86 1347.05 1129.75 1340.28 1140.62 1335.68V1009.37C1129.79 1004.79 1119.95 998.071 1111.65 989.584C1103.36 981.098 1096.79 971.015 1092.31 959.917C1087.83 948.818 1085.54 936.921 1085.56 924.91C1085.57 912.9 1087.91 901.011 1092.42 889.928L960.971 755.146L613.828 1110.92C599.84 1125.29 591.983 1144.76 591.983 1165.06C591.983 1185.36 599.84 1204.83 613.828 1219.2L1120.08 1738.17C1134.1 1752.51 1153.09 1760.56 1172.89 1760.56C1192.69 1760.56 1211.68 1752.51 1225.69 1738.17L1729.57 1221.63C1743.56 1207.26 1751.42 1187.79 1751.42 1167.49C1751.42 1147.19 1743.56 1127.72 1729.57 1113.35Z" fill="#F03C2E"/>
</g>
</g>
<path d="M1972.91 383.793C1968.56 365.792 1955.83 350.905 1938.62 343.658C1921.41 336.411 1901.75 337.676 1885.63 347.064C1674.17 470.153 1411.45 470.161 1199.98 347.064C1181.53 336.314 1158.62 336.314 1140.16 347.064C928.704 470.157 665.981 470.157 454.522 347.064C438.402 337.676 418.738 336.423 401.528 343.658C384.318 350.901 371.595 365.792 367.242 383.793C215.133 1012.69 453.752 1670.91 975.151 2060.68L1134.52 2179.82C1145.04 2187.68 1157.55 2191.62 1170.07 2191.62C1182.59 2191.62 1195.11 2187.68 1205.63 2179.82L1365 2060.68C1886.4 1670.91 2125.02 1012.69 1972.91 383.793ZM1293.89 1967.52L1170.08 2060.07L1046.27 1967.52C582.61 1620.91 359.868 1045.56 466.12 484.593C690.152 586.323 950.932 579.551 1170.08 464.269C1389.23 579.551 1650 586.327 1874.03 484.593C1980.28 1045.56 1757.54 1620.91 1293.89 1967.52Z" fill="#08D1FD"/>
<path d="M2278.56 61.485C2272.55 36.7762 2254.99 16.3414 2231.24 6.39383C2207.48 -3.55377 2180.35 -1.81748 2158.09 11.0685C1866.24 180.028 1503.64 180.039 1211.77 11.0685C1186.31 -3.68733 1154.69 -3.68733 1129.21 11.0685C837.363 180.033 474.757 180.033 182.905 11.0685C160.656 -1.81748 133.516 -3.53775 109.763 6.39383C86.0101 16.3361 68.4506 36.7762 62.4418 61.485C-147.496 924.747 181.841 1828.25 901.467 2363.28L1121.42 2526.81C1135.94 2537.6 1153.21 2543 1170.49 2543C1187.77 2543 1205.05 2537.6 1219.57 2526.81L1439.53 2363.28C2159.16 1828.25 2488.5 924.747 2278.56 61.485ZM1341.38 2235.39L1170.5 2362.43L999.622 2235.39C359.689 1759.62 52.2643 969.863 198.912 199.848C508.117 339.489 868.042 330.193 1170.5 171.95C1472.97 330.193 1832.88 339.494 2142.09 199.848C2288.74 969.863 1981.31 1759.62 1341.38 2235.39Z" fill="#14F72A"/>
<defs>
<clipPath id="clip0_3_3">
<rect width="1156.27" height="1185.33" fill="white" transform="translate(592 572)"/>
</clipPath>
</defs>
</svg>
