<svg width="1697" height="1853" viewBox="0 0 1697 1853" fill="none" xmlns="http://www.w3.org/2000/svg">
<path d="M1650.91 44.7927C1646.56 26.7921 1633.83 11.905 1616.62 4.658C1599.41 -2.58898 1579.75 -1.32407 1563.63 8.06354C1352.17 131.153 1089.45 131.161 877.981 8.06354C859.528 -2.68628 836.624 -2.68628 818.163 8.06354C606.704 131.157 343.981 131.157 132.522 8.06354C116.402 -1.32407 96.7378 -2.5773 79.5278 4.658C62.3179 11.9011 49.5953 26.7921 45.2417 44.7927C-106.867 673.692 131.752 1331.91 653.151 1721.68L812.516 1840.82C823.036 1848.68 835.55 1852.62 848.072 1852.62C860.59 1852.62 873.112 1848.68 883.633 1840.82L1043 1721.68C1564.4 1331.91 1803.02 673.692 1650.91 44.7927ZM971.889 1628.52L848.076 1721.07L724.268 1628.52C260.61 1281.91 37.8677 706.561 144.12 145.593C368.152 247.323 628.932 240.551 848.076 125.269C1067.23 240.551 1328 247.327 1552.03 145.593C1658.28 706.561 1435.54 1281.91 971.889 1628.52Z" fill="#08D1FD"/>
<g clip-path="url(#clip0_3_3)">
<mask id="mask0_3_3" style="mask-type:luminance" maskUnits="userSpaceOnUse" x="270" y="233" width="1160" height="1189">
<path d="M270 233H1429.42V1421.55H270V233Z" fill="white"/>
</mask>
<g mask="url(#mask0_3_3)">
<path d="M1407.57 774.353L901.346 255.442C894.412 248.329 886.178 242.686 877.115 238.836C868.052 234.986 858.338 233.004 848.528 233.004C838.718 233.004 829.004 234.986 819.941 238.836C810.878 242.686 802.644 248.329 795.71 255.442L690.628 363.216L823.949 499.886C839.623 494.429 856.474 493.577 872.595 497.427C888.717 501.276 903.467 509.674 915.176 521.669C926.949 533.751 935.169 548.986 938.893 565.632C942.617 582.278 941.696 599.662 936.235 615.796L1064.77 747.525C1080.52 741.92 1097.48 740.976 1113.72 744.801C1129.97 748.626 1144.83 757.066 1156.61 769.153C1164.86 777.609 1171.4 787.648 1175.87 798.697C1180.33 809.747 1182.63 821.589 1182.63 833.549C1182.63 845.509 1180.33 857.352 1175.87 868.401C1171.4 879.45 1164.86 889.49 1156.61 897.946C1139.93 915.027 1117.31 924.621 1093.74 924.621C1070.16 924.621 1047.55 915.027 1030.87 897.946C1018.48 885.223 1010.04 869.026 1006.6 851.395C1003.17 833.764 1004.91 815.487 1011.59 798.864L891.719 676.021V999.356C904.371 1005.76 915.352 1015.17 923.753 1026.79C932.153 1038.41 937.731 1051.92 940.025 1066.2C942.319 1080.47 941.263 1095.1 936.944 1108.87C932.624 1122.64 925.167 1135.16 915.188 1145.39C906.939 1153.85 897.146 1160.56 886.368 1165.14C875.589 1169.71 864.037 1172.07 852.37 1172.07C840.704 1172.07 829.151 1169.71 818.373 1165.14C807.594 1160.56 797.801 1153.85 789.552 1145.39C781.3 1136.93 774.754 1126.89 770.287 1115.84C765.821 1104.79 763.522 1092.95 763.522 1080.99C763.522 1069.03 765.821 1057.18 770.287 1046.13C774.754 1035.08 781.3 1025.04 789.552 1016.58C797.865 1008.05 807.746 1001.28 818.624 996.678V670.369C807.79 665.794 797.945 659.071 789.654 650.584C781.363 642.098 774.789 632.015 770.31 620.917C765.831 609.818 763.536 597.921 763.555 585.91C763.575 573.9 765.909 562.011 770.424 550.928L638.971 416.146L291.828 771.921C277.84 786.289 269.983 805.76 269.983 826.06C269.983 846.36 277.84 865.831 291.828 880.199L798.082 1399.17C812.098 1413.51 831.088 1421.56 850.888 1421.56C870.687 1421.56 889.678 1413.51 903.693 1399.17L1407.57 882.631C1421.56 868.262 1429.42 848.792 1429.42 828.492C1429.42 808.192 1421.56 788.721 1407.57 774.353Z" fill="#F03C2E"/>
</g>
</g>
<defs>
<clipPath id="clip0_3_3">
<rect width="1156.27" height="1185.33" fill="white" transform="translate(270 233)"/>
</clipPath>
</defs>
</svg>
