<?xml version="1.0" standalone="no"?>
<!DOCTYPE svg PUBLIC "-//W3C//DTD SVG 20010904//EN"
 "http://www.w3.org/TR/2001/REC-SVG-20010904/DTD/svg10.dtd">
<svg version="1.0" xmlns="http://www.w3.org/2000/svg"
 width="450.000000pt" height="350.000000pt" viewBox="0 0 450.000000 350.000000"
 preserveAspectRatio="xMidYMid meet">

<g transform="translate(0.000000,350.000000) scale(0.100000,-0.100000)"
fill="#000000" stroke="none">
<path d="M1049 3454 c-11 -14 -13 -64 -10 -249 l3 -232 -45 -17 c-76 -29 -132
-79 -167 -149 -76 -154 -34 -313 107 -406 l52 -34 5 -71 c3 -39 10 -274 16
-522 11 -473 15 -516 61 -606 47 -93 165 -190 277 -227 73 -25 219 -28 301 -7
47 12 56 12 89 -4 50 -24 144 -42 195 -38 34 2 41 0 38 -12 -19 -67 21 -173
86 -230 31 -27 87 -50 125 -50 15 0 11 -11 -20 -71 -33 -64 -37 -79 -37 -148
0 -93 25 -150 95 -221 69 -68 128 -94 215 -94 209 1 492 190 588 392 27 58 29
70 25 147 -5 97 -40 180 -108 257 -56 64 -112 88 -205 88 -84 0 -147 -18 -265
-74 -115 -55 -209 -46 -245 24 -28 55 -21 77 56 173 27 34 58 86 70 117 60
160 19 350 -102 469 l-52 51 27 34 c14 19 26 41 26 48 0 16 -145 214 -154 211
-4 -2 -38 -42 -77 -90 -38 -49 -75 -88 -80 -88 -6 0 -39 86 -73 190 -35 105
-83 237 -106 295 -23 58 -46 116 -51 129 -5 13 -11 22 -14 20 -5 -6 -117 -711
-112 -715 1 -2 36 33 77 78 l74 81 12 -35 c6 -19 15 -52 18 -73 7 -40 6 -40
-41 -65 -113 -60 -207 -181 -233 -301 -13 -58 -9 -197 5 -233 8 -17 5 -18 -41
-12 -111 16 -174 72 -193 171 -5 28 -15 266 -21 530 l-12 480 28 20 c115 82
158 158 159 275 0 65 -4 84 -33 143 -38 76 -88 121 -176 156 l-54 22 -7 227
c-4 125 -11 235 -17 245 -11 22 -61 23 -79 1z m88 -685 c69 -26 98 -89 69
-151 -42 -88 -159 -90 -201 -2 -29 62 -3 126 65 153 33 13 34 13 67 0z m940
-1333 c43 -63 58 -117 43 -161 -17 -53 -107 -125 -154 -125 -9 0 -6 19 10 68
19 54 24 89 24 181 l0 113 23 -14 c12 -8 37 -36 54 -62z m-282 2 c-10 -62 -27
-118 -36 -118 -5 0 -11 16 -15 35 -4 25 0 47 16 80 28 57 44 59 35 3z m933
-754 c34 -22 62 -74 62 -115 0 -44 -43 -114 -93 -152 -55 -42 -162 -89 -202
-89 -62 0 -125 63 -125 125 0 63 80 161 170 207 101 52 138 56 188 24z"/>
<path d="M2878 2434 l-117 -85 59 -84 c33 -46 60 -88 60 -93 0 -6 -22 -26 -50
-46 l-49 -36 70 -100 71 -100 49 35 c27 19 53 35 58 35 4 0 44 -51 87 -112
267 -384 369 -502 458 -531 103 -35 194 -14 308 70 52 37 128 130 128 154 0
11 -106 172 -137 209 -3 3 -14 -9 -26 -25 -11 -17 -38 -47 -59 -67 -33 -32
-46 -38 -81 -38 -62 0 -96 33 -232 227 -65 92 -136 192 -157 222 -21 30 -38
58 -38 62 0 6 93 76 173 130 14 10 -132 211 -147 202 -6 -5 -46 -32 -88 -60
-43 -29 -81 -53 -85 -53 -4 0 -34 38 -67 85 -32 47 -61 85 -65 84 -3 0 -59
-39 -123 -85z"/>
<path d="M2234 2459 c-42 -12 -101 -79 -110 -124 -32 -172 132 -310 276 -233
61 33 90 85 90 161 0 98 -53 171 -145 196 -46 13 -68 13 -111 0z"/>
<path d="M2551 1931 c-62 -44 -115 -82 -117 -84 -4 -4 648 -939 675 -969 5 -6
213 131 239 157 2 2 -62 93 -142 203 -80 110 -234 328 -342 484 -108 156 -197
284 -198 285 -1 2 -53 -33 -115 -76z"/>
</g>
</svg>